<?xml version="1.0" encoding="utf-8"?>
<!-- Generator: Adobe Illustrator 18.1.0, SVG Export Plug-In . SVG Version: 6.00 Build 0)  -->
<!DOCTYPE svg PUBLIC "-//W3C//DTD SVG 1.1//EN" "http://www.w3.org/Graphics/SVG/1.1/DTD/svg11.dtd">
<svg version="1.1" id="Layer_1" xmlns:sketch="http://www.bohemiancoding.com/sketch/ns"
	 xmlns="http://www.w3.org/2000/svg" xmlns:xlink="http://www.w3.org/1999/xlink" x="0px" y="0px" viewBox="4 3 37 40"
	 enable-background="new 4 3 37 40" xml:space="preserve">
<title>Rectangle 38 + ? copy + Path 19</title>
<desc>Created with Sketch.</desc>
<line opacity="0.5" fill="none" stroke="#8DC5D8" x1="4" y1="42" x2="41" y2="42"/>
<g>
	<path fill="#307699" d="M36.4,5L39,7v32.8H6V7l2.6-2H36.4 M37.1,3H7.9L4,6v35.8h37V6L37.1,3L37.1,3z"/>
</g>
<path fill="none" stroke="#8DC5D8" stroke-linecap="round" d="M30.4,26.3c-1.1,3.3-4.3,5.6-7.9,5.6c-4.6,0-8.4-3.8-8.4-8.4"/>
<path fill="none" stroke="#8DC5D8" stroke-linecap="round" d="M14.6,20.7c1.2-3.2,4.3-5.5,7.9-5.5c4.6,0,8.4,3.8,8.4,8.4"/>
<polyline fill="none" stroke="#8DC5D8" stroke-linecap="round" points="12,26.8 14.1,23.5 17.4,25.7 "/>
<polyline fill="none" stroke="#8DC5D8" stroke-linecap="round" points="33.1,20.9 30.9,24.1 27.7,21.9 "/>
<line fill="none" stroke="#307699" x1="4" y1="6.8" x2="41" y2="6.8"/>
<path id="Rectangle-38" sketch:type="MSShapeGroup" fill="none" stroke="#307699" stroke-width="2" d="M5,68c0-1.7,1.3-3,3-3h28
	c1.7,0,3,1.3,3,3v26c0,1.7-1.3,3-3,3H23.8l-10.9,7.8V97H8c-1.7,0-3-1.3-3-3V68z"/>
<path id="Path-19" sketch:type="MSShapeGroup" opacity="0.3807" fill="none" stroke="#8DC5D8" stroke-linecap="round" enable-background="new    " d="
	M7.5,98.6h3.9v9.3L24,98.5h12.3"/>
<path fill="none" stroke="#8DC5D8" stroke-linecap="round" stroke-miterlimit="10" d="M17.4,76.7c0-5.1,8.5-5.5,8.5,0.7
	c0,2.5-2.8,4.3-4.3,4.9c0,0.3,0,3.5,0,3.5"/>
<circle fill="#8DC5D8" cx="21.7" cy="89.8" r="1"/>
</svg>
